<svg xmlns="http://www.w3.org/2000/svg" width="255" height="69" fill="none"><g clip-path="url(#a)"><path fill="#0278FE" d="M111.419 2c0-1.10457.895-2 2-2h28c1.105 0 2 .89543 2 2v28c0 1.1046-.895 2-2 2h-28c-1.105 0-2-.8954-2-2V2Z"/><path fill="#2A2C2F" d="M143.419 6h-32v2h32V6Z"/><path fill="#2A2C2F" d="M124.419 6h-2v26h2V6Z"/><path fill="#fff" d="m118.731 68.7442.838-2.7841h4.801l.838 2.7841h4.262l-4.801-14.5455h-5.398l-4.801 14.5455h4.261Zm1.733-5.7387 1.449-4.8011h.114l1.449 4.8011h-3.012ZM130.871 68.7442h3.949V63.943h1.363l2.557 4.8012h4.29l-2.955-5.4262c1.549-.7457 2.472-2.159 2.472-4.1761 0-3.0966-2.166-4.9432-5.398-4.9432h-6.278v14.5455Zm3.949-7.8693v-3.5228h1.392c1.385 0 2.216.5398 2.216 1.7898 0 1.2429-.831 1.733-2.216 1.733h-1.392ZM143.833 57.3805h4.375v11.3637h3.892V57.3805h4.375v-3.1818h-12.642v3.1818ZM171.391 59h3.991c-.305-2.9191-2.954-5-6.392-5-3.92 0-7.102 2.6988-7.102 7.5 0 4.6022 2.884 7.4431 7.131 7.4431 3.807 0 6.534-2.3295 6.534-6.3068v-2.017h-6.449v2.8125h2.642c-.035 1.2642-.93 2.0738-2.699 2.0738-2.045 0-3.096-1.5056-3.096-4.0625 0-2.5213 1.136-4.0056 3.125-4.0056 1.235 0 2.074.5681 2.315 1.5625ZM180.723 68.7442l.838-2.7841h4.802l.838 2.7841h4.261l-4.801-14.5455h-5.398l-4.801 14.5455h4.261Zm1.733-5.7387 1.449-4.8011h.114l1.449 4.8011h-3.012ZM192.863 68.7442h9.83v-3.1818h-5.881V54.1987h-3.949v14.5455ZM204.289 68.7442h9.829v-3.1818h-5.88V54.1987h-3.949v14.5455ZM215.715 68.7442h10.454v-3.1818h-6.506v-2.5h5.995v-3.1819h-5.995v-2.5h6.534v-3.1818h-10.482v14.5455ZM228.156 68.7442h3.949V63.943h1.363l2.557 4.8012h4.29l-2.955-5.4262c1.549-.7457 2.472-2.159 2.472-4.1761 0-3.0966-2.166-4.9432-5.398-4.9432h-6.278v14.5455Zm3.949-7.8693v-3.5228h1.392c1.385 0 2.216.5398 2.216 1.7898 0 1.2429-.831 1.733-2.216 1.733h-1.392ZM240.235 54.1987l5.341 9.9716v4.5739h3.92v-4.5739l5.341-9.9716h-4.403l-2.841 5.9091h-.114l-2.84-5.9091h-4.404ZM109.056 54.1987v14.5454h-3.296l-5.255-7.642h-.085v7.642h-3.9493V54.1987h3.3523l5.17 7.6136h.114v-7.6136h3.949ZM84.0303 68.7441V54.1987h10.4829v3.1818h-6.5341v2.5h5.9943v3.1818h-5.9943v2.5h6.5057v3.1818H84.0303ZM69.9023 57.3805v-3.1818h12.642v3.1818h-4.3749v11.3636h-3.8921V57.3805h-4.375ZM57.8584 68.7441V54.1987h10.4829v3.1818h-6.534v2.5h5.9943v3.1818h-5.9943v2.5h6.5056v3.1818H57.8584ZM46.4321 68.7441V54.1987h3.9489v11.3636h5.8807v3.1818h-9.8296ZM33.3071 68.7441V54.1987h6.2784c1.0796 0 2.0242.2131 2.8338.6392.8097.4262 1.4394 1.0251 1.8892 1.7969s.6747 1.6738.6747 2.706c0 1.0416-.232 1.9436-.696 2.7059-.4593.7623-1.1056 1.3494-1.9389 1.7614-.8286.4119-1.7969.6179-2.9048.6179h-3.75v-3.0682h2.9545c.464 0 .8594-.0805 1.1861-.2415.3314-.1657.5848-.4001.7599-.7031.18-.303.2699-.6605.2699-1.0724 0-.4167-.0899-.7718-.2699-1.0654-.1751-.2983-.4285-.5255-.7599-.6818-.3267-.161-.7221-.2415-1.1861-.2415h-1.392v11.392h-3.9489ZM31.4362 54.1987v14.5454h-3.9489V54.1987h3.9489ZM14.1279 68.7441V54.1987h6.2784c1.0796 0 2.0242.1965 2.8338.5895.8097.393 1.4394.9588 1.8892 1.6975.4498.7386.6747 1.624.6747 2.6562 0 1.0417-.232 1.92-.696 2.6349-.4593.715-1.1056 1.2548-1.9389 1.6193-.8286.3646-1.7969.5469-2.9048.5469h-3.75v-3.0682h2.9545c.464 0 .8594-.0568 1.1861-.1704.3314-.1184.5848-.3054.7599-.5611.18-.2557.2699-.5895.2699-1.0014 0-.4167-.0899-.7552-.2699-1.0156-.1751-.2652-.4285-.4593-.7599-.5824-.3267-.1279-.7221-.1918-1.1861-.1918h-1.392v11.392h-3.9489Zm8.5227-6.6761 3.6364 6.6761h-4.2898l-3.5511-6.6761h4.2045ZM0 57.3805v-3.1818h12.642v3.1818H8.26702v11.3636H4.37499V57.3805H0Z"/></g><defs><clipPath id="a"><path fill="#fff" d="M0 0h254.837v68.9431H0z"/></clipPath></defs></svg>